# xmcd
#
# Track frame offsets:
#	150
#	19296
#	33069
#	46733
#	59672
#	69361
#	80956
#	91999
#	103179
#	120189
#	129966
#	144997
#	155858
#	169320
#
# Disc length: 2435 seconds
#
# Revision: 0
# Processed by: cddbd v1.5.2PL0 Copyright (c) Steve Scherf et al.
# Submitted via: dBpowerAMP V4.0
#
DISCID=ba09810e
DTITLE=Milion·rio&JosÈRico - As Melhores
DYEAR=1900
DGENRE=
TTITLE0=SonhoAlto
TTITLE1=O NossoFilho
TTITLE2=V·ProInfernoComSeuAmor
TTITLE3=MundoCruel
TTITLE4=EstradaDaVida
TTITLE5=SentimentoSertanejo
TTITLE6=Adeus
TTITLE7=Ciumento
TTITLE8=Solid„o
TTITLE9=Esquecido
TTITLE10=JodoDoAmor
TTITLE11=L·grimasQueChoram
TTITLE12=OndeEst·MeuBem
TTITLE13=VidaCorDeRosa
EXTD=
EXTT0=
EXTT1=
EXTT2=
EXTT3=
EXTT4=
EXTT5=
EXTT6=
EXTT7=
EXTT8=
EXTT9=
EXTT10=
EXTT11=
EXTT12=
EXTT13=
PLAYORDER=
